<?xml version="1.0" encoding="UTF-8"?>
<svg xmlns="http://www.w3.org/2000/svg" xmlns:xlink="http://www.w3.org/1999/xlink" width="512" height="512" viewBox="0 0 512 512">
<path fill-rule="nonzero" fill="rgb(98.039216%, 98.039216%, 98.039216%)" fill-opacity="1" stroke-width="1" stroke-linecap="butt" stroke-linejoin="miter" stroke="rgb(89.411765%, 89.411765%, 90.588236%)" stroke-opacity="1" stroke-miterlimit="2" d="M 44.800781 419.199219 L 45.0625 424.21875 L 45.847656 429.179688 L 47.148438 434.03125 L 48.949219 438.722656 L 51.230469 443.199219 L 53.96875 447.414062 L 57.128906 451.316406 L 60.683594 454.871094 L 64.585938 458.03125 L 68.800781 460.769531 L 73.277344 463.050781 L 77.96875 464.851562 L 82.820312 466.152344 L 87.78125 466.9375 L 92.800781 467.199219 L 419.199219 467.199219 L 424.21875 466.9375 L 429.179688 466.152344 L 434.03125 464.851562 L 438.722656 463.050781 L 443.199219 460.769531 L 447.414062 458.03125 L 451.316406 454.871094 L 454.871094 451.316406 L 458.03125 447.414062 L 460.769531 443.199219 L 463.050781 438.722656 L 464.851562 434.03125 L 466.152344 429.179688 L 466.9375 424.21875 L 467.199219 419.199219 L 467.199219 92.800781 L 466.9375 87.78125 L 466.152344 82.820312 L 464.851562 77.96875 L 463.050781 73.277344 L 460.769531 68.800781 L 458.03125 64.585938 L 454.871094 60.683594 L 451.316406 57.128906 L 447.414062 53.96875 L 443.199219 51.230469 L 438.722656 48.949219 L 434.03125 47.148438 L 429.179688 45.847656 L 424.21875 45.0625 L 419.199219 44.800781 L 92.800781 44.800781 L 87.78125 45.0625 L 82.820312 45.847656 L 77.96875 47.148438 L 73.277344 48.949219 L 68.800781 51.230469 L 64.585938 53.96875 L 60.683594 57.128906 L 57.128906 60.683594 L 53.96875 64.585938 L 51.230469 68.800781 L 48.949219 73.277344 L 47.148438 77.96875 L 45.847656 82.820312 L 45.0625 87.78125 L 44.800781 92.800781 Z M 44.800781 419.199219 "/>
<path fill="none" stroke-width="2" stroke-linecap="butt" stroke-linejoin="miter" stroke="rgb(33.333334%, 33.333334%, 38.431373%)" stroke-opacity="1" stroke-dasharray="6 6" stroke-miterlimit="2" d="M 116.800781 390.398438 L 116.800781 121.601562 "/>
<path fill-rule="nonzero" fill="rgb(33.333334%, 33.333334%, 38.431373%)" fill-opacity="1" d="M 203.199219 169.601562 L 203.304688 171.605469 L 203.621094 173.59375 L 204.140625 175.53125 L 204.859375 177.410156 L 205.773438 179.199219 L 206.867188 180.886719 L 208.132812 182.449219 L 209.550781 183.867188 L 211.113281 185.132812 L 212.800781 186.226562 L 214.589844 187.140625 L 216.46875 187.859375 L 218.40625 188.378906 L 220.394531 188.695312 L 222.398438 188.800781 L 376 188.800781 L 378.007812 188.695312 L 379.992188 188.378906 L 381.933594 187.859375 L 383.808594 187.140625 L 385.601562 186.226562 L 387.285156 185.132812 L 388.847656 183.867188 L 390.269531 182.449219 L 391.53125 180.886719 L 392.628906 179.199219 L 393.539062 177.410156 L 394.261719 175.53125 L 394.78125 173.59375 L 395.09375 171.605469 L 395.199219 169.601562 L 395.09375 167.59375 L 394.78125 165.609375 L 394.261719 163.667969 L 393.539062 161.789062 L 392.628906 160 L 391.53125 158.316406 L 390.269531 156.753906 L 388.847656 155.332031 L 387.285156 154.066406 L 385.601562 152.972656 L 383.808594 152.058594 L 381.933594 151.339844 L 379.992188 150.820312 L 378.007812 150.503906 L 376 150.398438 L 222.398438 150.398438 L 220.394531 150.503906 L 218.40625 150.820312 L 216.46875 151.339844 L 214.589844 152.058594 L 212.800781 152.972656 L 211.113281 154.066406 L 209.550781 155.332031 L 208.132812 156.753906 L 206.867188 158.316406 L 205.773438 160 L 204.859375 161.789062 L 204.140625 163.667969 L 203.621094 165.609375 L 203.304688 167.59375 Z M 203.199219 169.601562 "/>
<path fill-rule="nonzero" fill="rgb(33.333334%, 33.333334%, 38.431373%)" fill-opacity="1" d="M 203.199219 256 L 203.304688 258.007812 L 203.621094 259.992188 L 204.140625 261.933594 L 204.859375 263.808594 L 205.773438 265.601562 L 206.867188 267.285156 L 208.132812 268.847656 L 209.550781 270.269531 L 211.113281 271.53125 L 212.800781 272.628906 L 214.589844 273.539062 L 216.46875 274.261719 L 218.40625 274.78125 L 220.394531 275.09375 L 222.398438 275.199219 L 280 275.199219 L 282.007812 275.09375 L 283.992188 274.78125 L 285.933594 274.261719 L 287.808594 273.539062 L 289.601562 272.628906 L 291.285156 271.53125 L 292.847656 270.269531 L 294.269531 268.847656 L 295.53125 267.285156 L 296.628906 265.601562 L 297.539062 263.808594 L 298.261719 261.933594 L 298.78125 259.992188 L 299.09375 258.007812 L 299.199219 256 L 299.09375 253.992188 L 298.78125 252.007812 L 298.261719 250.066406 L 297.539062 248.191406 L 296.628906 246.398438 L 295.53125 244.714844 L 294.269531 243.152344 L 292.847656 241.730469 L 291.285156 240.46875 L 289.601562 239.371094 L 287.808594 238.460938 L 285.933594 237.738281 L 283.992188 237.21875 L 282.007812 236.90625 L 280 236.800781 L 222.398438 236.800781 L 220.394531 236.90625 L 218.40625 237.21875 L 216.46875 237.738281 L 214.589844 238.460938 L 212.800781 239.371094 L 211.113281 240.46875 L 209.550781 241.730469 L 208.132812 243.152344 L 206.867188 244.714844 L 205.773438 246.398438 L 204.859375 248.191406 L 204.140625 250.066406 L 203.621094 252.007812 L 203.304688 253.992188 Z M 203.199219 256 "/>
<path fill-rule="nonzero" fill="rgb(33.333334%, 33.333334%, 38.431373%)" fill-opacity="1" d="M 203.199219 342.398438 L 203.304688 344.40625 L 203.621094 346.390625 L 204.140625 348.332031 L 204.859375 350.210938 L 205.773438 352 L 206.867188 353.683594 L 208.132812 355.246094 L 209.550781 356.667969 L 211.113281 357.933594 L 212.800781 359.027344 L 214.589844 359.941406 L 216.46875 360.660156 L 218.40625 361.179688 L 220.394531 361.496094 L 222.398438 361.601562 L 328 361.601562 L 330.007812 361.496094 L 331.992188 361.179688 L 333.933594 360.660156 L 335.808594 359.941406 L 337.601562 359.027344 L 339.285156 357.933594 L 340.847656 356.667969 L 342.269531 355.246094 L 343.53125 353.683594 L 344.628906 352 L 345.539062 350.210938 L 346.261719 348.332031 L 346.78125 346.390625 L 347.09375 344.40625 L 347.199219 342.398438 L 347.09375 340.394531 L 346.78125 338.40625 L 346.261719 336.46875 L 345.539062 334.589844 L 344.628906 332.800781 L 343.53125 331.113281 L 342.269531 329.550781 L 340.847656 328.132812 L 339.285156 326.867188 L 337.601562 325.773438 L 335.808594 324.859375 L 333.933594 324.140625 L 331.992188 323.621094 L 330.007812 323.304688 L 328 323.199219 L 222.398438 323.199219 L 220.394531 323.304688 L 218.40625 323.621094 L 216.46875 324.140625 L 214.589844 324.859375 L 212.800781 325.773438 L 211.113281 326.867188 L 209.550781 328.132812 L 208.132812 329.550781 L 206.867188 331.113281 L 205.773438 332.800781 L 204.859375 334.589844 L 204.140625 336.46875 L 203.621094 338.40625 L 203.304688 340.394531 Z M 203.199219 342.398438 "/>
<path fill-rule="nonzero" fill="rgb(79.607844%, 23.529412%, 20%)" fill-opacity="1" d="M 174.398438 169.601562 L 174.257812 166.734375 L 173.828125 163.894531 L 173.121094 161.109375 L 172.136719 158.414062 L 170.894531 155.828125 L 169.394531 153.375 L 167.660156 151.085938 L 165.710938 148.984375 L 163.554688 147.082031 L 161.226562 145.40625 L 158.738281 143.972656 L 156.121094 142.789062 L 153.398438 141.875 L 150.601562 141.238281 L 147.753906 140.878906 L 144.882812 140.808594 L 142.019531 141.023438 L 139.191406 141.523438 L 136.425781 142.300781 L 133.753906 143.347656 L 131.199219 144.660156 L 128.789062 146.214844 L 126.542969 148.007812 L 124.488281 150.011719 L 122.640625 152.210938 L 121.023438 154.582031 L 119.652344 157.105469 L 118.535156 159.75 L 117.691406 162.492188 L 117.121094 165.308594 L 116.835938 168.164062 L 116.835938 171.035156 L 117.121094 173.890625 L 117.691406 176.707031 L 118.535156 179.449219 L 119.652344 182.097656 L 121.023438 184.617188 L 122.640625 186.988281 L 124.488281 189.1875 L 126.542969 191.195312 L 128.789062 192.984375 L 131.199219 194.542969 L 133.753906 195.851562 L 136.425781 196.898438 L 139.191406 197.679688 L 142.019531 198.175781 L 144.882812 198.390625 L 147.753906 198.320312 L 150.601562 197.960938 L 153.398438 197.324219 L 156.121094 196.410156 L 158.738281 195.226562 L 161.226562 193.792969 L 163.554688 192.117188 L 165.710938 190.21875 L 167.660156 188.113281 L 169.394531 185.824219 L 170.894531 183.375 L 172.136719 180.785156 L 173.121094 178.089844 L 173.828125 175.304688 L 174.257812 172.46875 Z M 174.398438 169.601562 "/>
<path fill-rule="nonzero" fill="rgb(21.960784%, 59.607846%, 14.901961%)" fill-opacity="1" d="M 174.398438 256 L 174.257812 253.132812 L 173.828125 250.292969 L 173.121094 247.511719 L 172.136719 244.8125 L 170.894531 242.226562 L 169.394531 239.777344 L 167.660156 237.488281 L 165.710938 235.382812 L 163.554688 233.484375 L 161.226562 231.808594 L 158.738281 230.371094 L 156.121094 229.191406 L 153.398438 228.277344 L 150.601562 227.636719 L 147.753906 227.28125 L 144.882812 227.207031 L 142.019531 227.421875 L 139.191406 227.921875 L 136.425781 228.699219 L 133.753906 229.75 L 131.199219 231.058594 L 128.789062 232.617188 L 126.542969 234.40625 L 124.488281 236.410156 L 122.640625 238.609375 L 121.023438 240.984375 L 119.652344 243.503906 L 118.535156 246.148438 L 117.691406 248.894531 L 117.121094 251.707031 L 116.835938 254.5625 L 116.835938 257.4375 L 117.121094 260.292969 L 117.691406 263.105469 L 118.535156 265.851562 L 119.652344 268.496094 L 121.023438 271.015625 L 122.640625 273.390625 L 124.488281 275.589844 L 126.542969 277.59375 L 128.789062 279.382812 L 131.199219 280.941406 L 133.753906 282.25 L 136.425781 283.300781 L 139.191406 284.078125 L 142.019531 284.578125 L 144.882812 284.792969 L 147.753906 284.71875 L 150.601562 284.363281 L 153.398438 283.722656 L 156.121094 282.808594 L 158.738281 281.628906 L 161.226562 280.191406 L 163.554688 278.515625 L 165.710938 276.617188 L 167.660156 274.511719 L 169.394531 272.222656 L 170.894531 269.773438 L 172.136719 267.1875 L 173.121094 264.488281 L 173.828125 261.707031 L 174.257812 258.867188 Z M 174.398438 256 "/>
<path fill-rule="nonzero" fill="rgb(58.431375%, 34.509805%, 69.803923%)" fill-opacity="1" d="M 174.398438 342.398438 L 174.257812 339.53125 L 173.828125 336.695312 L 173.121094 333.910156 L 172.136719 331.214844 L 170.894531 328.625 L 169.394531 326.175781 L 167.660156 323.886719 L 165.710938 321.78125 L 163.554688 319.882812 L 161.226562 318.207031 L 158.738281 316.773438 L 156.121094 315.589844 L 153.398438 314.675781 L 150.601562 314.039062 L 147.753906 313.679688 L 144.882812 313.609375 L 142.019531 313.824219 L 139.191406 314.320312 L 136.425781 315.101562 L 133.753906 316.148438 L 131.199219 317.457031 L 128.789062 319.015625 L 126.542969 320.804688 L 124.488281 322.8125 L 122.640625 325.011719 L 121.023438 327.382812 L 119.652344 329.902344 L 118.535156 332.550781 L 117.691406 335.292969 L 117.121094 338.109375 L 116.835938 340.964844 L 116.835938 343.835938 L 117.121094 346.691406 L 117.691406 349.507812 L 118.535156 352.25 L 119.652344 354.894531 L 121.023438 357.417969 L 122.640625 359.789062 L 124.488281 361.988281 L 126.542969 363.992188 L 128.789062 365.785156 L 131.199219 367.339844 L 133.753906 368.652344 L 136.425781 369.699219 L 139.191406 370.476562 L 142.019531 370.976562 L 144.882812 371.191406 L 147.753906 371.121094 L 150.601562 370.761719 L 153.398438 370.125 L 156.121094 369.210938 L 158.738281 368.027344 L 161.226562 366.59375 L 163.554688 364.917969 L 165.710938 363.015625 L 167.660156 360.914062 L 169.394531 358.625 L 170.894531 356.171875 L 172.136719 353.585938 L 173.121094 350.890625 L 173.828125 348.105469 L 174.257812 345.265625 Z M 174.398438 342.398438 "/>
</svg>
